<svg version="1" xmlns="http://www.w3.org/2000/svg" width="933.333" height="933.333" viewBox="0 0 700.000000 700.000000"><path d="M252.2 13.8c-1.6 1.6-3.5 4.6-4.1 6.8-1.3 4.7-1.5 147.2-.3 149.2.6.9 3.6 1.2 11.3 1l10.4-.3.5-67.9.5-68 3.2-.8c1.7-.5 83.8-.7 182.3-.6 176 .3 179.2.3 180.6 2.2 1.2 1.7 1.4 23.4 1.4 147.2 0 92-.4 146.2-1 147.8l-1 2.6H454.6c-99.8 0-182.1-.3-183-.6-1.4-.5-1.6-3.4-1.6-21.8 0-15.2-.3-21.5-1.2-22.4-.8-.8-4.7-1.2-10.9-1.2-7.9 0-9.8.3-10.3 1.6-.3.9-.6 14-.6 29.2 0 24.4.2 28.1 1.8 31.2.9 1.9 2.8 4 4.2 4.7 2 1 44 1.3 199.3 1.3 214.9 0 201.2.4 205.6-5.8l2.1-3V20.3l-2.2-2.9c-1.3-1.6-3.2-3.7-4.3-4.6-1.9-1.6-14.4-1.7-200.1-1.8H255.2l-3 2.8zM107.4 71c-12.6 4-22.7 12.8-28 24.4-2.3 5.2-2.8 7.8-3.7 22.9-1.2 20.9-.2 29 4.7 39.2 6.5 13.2 18.7 22.3 33.1 24.7 18.5 3.1 39.2-7.6 47.4-24.4 4.2-8.7 5.4-18 4.9-37.8-.6-19.3-1.9-24-9.5-33.5-12.2-15-31.3-21-48.9-15.5zm19.7 21.2c5.2 1.5 11.7 7.3 14 12.2 1.6 3.5 1.9 6.8 1.9 21.4 0 18.6-.5 21.1-5.5 27-10.2 12.1-32 9-38.1-5.5-1.9-4.5-2.8-25.1-1.6-34.7 1.3-9.9 4.4-14.8 12.1-18.8 5.8-3.1 10.9-3.5 17.2-1.6z"/><path d="M317.6 81.6c-2 1.9-2.3 17.3-.4 19.2.7.7 4.5 1.2 9.9 1.2 10.9 0 11.3-.4 11.2-11.2-.1-10.2-.7-10.8-11.4-10.8-5.7 0-8.2.4-9.3 1.6zM362.6 81.6c-1.2 1.2-1.6 3.7-1.6 10.4 0 7.8.2 9.1 1.9 10 1.3.7 38.4 1 113.1 1 74.7 0 111.8-.3 113.1-1 1.7-.9 1.9-2.2 1.9-10 0-6.7-.4-9.2-1.6-10.4-1.4-1.4-13-1.6-113.4-1.6s-112 .2-113.4 1.6zM316.4 127.3c-.3.8-.3 5.6-.2 10.8l.3 9.4h274l.3-9.4c.2-6-.1-9.8-.9-10.7-1.7-2-272.7-2.1-273.5-.1zM373.7 172.7c-1.2 1.2-.8 19.8.5 21.1 1.7 1.7 213.9 1.7 215.6 0 .8-.8 1.2-4.6 1.2-10.3 0-5.7-.4-9.5-1.2-10.3-.9-.9-26.3-1.2-108.3-1.2-59 0-107.5.3-107.8.7zM80.8 196c-14.5 1.7-26 7.3-35.2 17-8.2 8.8-11.8 15.3-15 27.3l-2.6 9.9v82.1c0 80.7 0 82.3 2 85.5 4 6.5.4 6.3 92.5 6l83.5-.3 2.7-2.8 2.8-2.7.5-76c.3-49.6.9-76.3 1.5-76.9.7-.7 23.1-1.1 64.7-1.3 62.8-.3 63.7-.3 66.5-2.4 5.2-3.8 5.7-6.2 6.1-27.9.5-23.9-.4-30.6-4.8-35l-3-3-127.8-.1c-70.2-.1-130.7.2-134.4.6zm245.7 33.5v11l-65 .5c-70 .5-68 .4-70.4 5.7-.8 1.6-1.1 26.2-1.1 77.3 0 66.7-.2 75-1.6 76.4-1.4 1.4-8.9 1.6-67.8 1.6-51.6 0-66.6-.3-67.9-1.3-1.6-1.1-1.7-6.4-1.5-78.7l.3-77.5 2.7-5.7c4.6-9.9 13.5-17.5 23.2-19.9 1.7-.4 58.5-.6 126.1-.5l123 .1v11zM373.6 219.6c-.3.8-.6 5.6-.6 10.5 0 8.7.1 9 2.6 9.9 3.1 1.2 212.3 1.3 214.2.2.9-.6 1.2-3.6 1-11.3l-.3-10.4-108.1-.3c-98-.2-108.2-.1-108.8 1.4zM374.5 264c-.7 1.2-.9 19.6-.2 20.7.7 1 23.4 1.3 108.2 1.3H590l.5-2.3c.3-1.2.5-6.1.3-11l-.3-8.7-107.8-.3c-59.4-.1-108 0-108.2.3zM167.3 460.4c-13.6 3.4-23.7 11.6-29.9 24.1-3.4 6.9-3.8 8.4-4.2 17.9-.7 15.1 2.1 22.6 12.2 33.4 17.4 18.5 45.4 19.1 63.7 1.2 23.9-23.4 15.3-64.3-15.9-75.1-7.3-2.5-19.2-3.3-25.9-1.5zm20.2 23.3c7 3.5 10.9 9 12.5 17.2 3.2 16.8-12.4 30.7-29.1 26.1-12.4-3.5-19.9-20.3-14.1-31.6 2.7-5.3 10.2-11.9 15-13.2 4.4-1.3 11.6-.6 15.7 1.5zM332 460c-11.2 1.4-20.1 6-27.7 14.2-5.2 5.7-7.9 10.9-9.8 19-4.1 17.3.7 34.5 12.5 45.1 2.5 2.2 7.9 5.6 12 7.6 7.3 3.5 7.8 3.6 19.5 3.6s12.2-.1 19.6-3.6c23.5-11.2 32.4-38.7 20.3-62.8-8.3-16.6-26.4-25.6-46.4-23.1zm18.8 25.2c18.6 12.4 12.4 39.4-9.8 42.4-13.1 1.8-25.3-9.2-25.3-22.7 0-8.1 4.1-15.3 11.4-19.7 5-3.1 5.9-3.3 12.5-3 5.7.3 7.9.9 11.2 3zM489 460.4c-16.3 3.5-29.1 16-33.6 32.9-3.1 11.6-.9 25.5 5.5 35.6 19.4 30.1 63.4 27.4 78.9-4.8 3.1-6.4 3.7-8.8 4-16.1.2-4.8-.1-11-.7-13.9-5.2-24.3-29.1-39.1-54.1-33.7zm16.6 22.1c10.1 3 16.4 11.3 16.4 21.8 0 9.9-4.7 17.2-13.5 21.3-8.9 4.2-18.1 2.5-25.3-4.7-4.4-4.4-6.1-7.8-6.6-13.4-.9-11.6 4.9-21 15.4-24.5 6.7-2.4 7.4-2.4 13.6-.5zM324.5 563c-14 .8-20.3 2.8-29.2 9.4-11.3 8.4-18.7 18-22.5 29.5-2.1 6.2-2.2 8.7-2.6 44.6-.2 20.9 0 40 .3 42.4.5 3.2 1.6 5.4 4 7.8l3.3 3.3h120.5l3.3-2.5c2-1.5 3.8-4.1 4.5-6.3.7-2.6.9-15.7.6-42.7-.3-31.9-.7-40-2-44.4-5.3-17.8-19.2-32.4-36.2-38.1-5.3-1.8-26.8-4.4-31-3.8-.5.1-6.4.4-13 .8zm39.6 25.3c6.2 3 13.6 10.3 16.7 16.3 1.1 2.2 2.5 6.6 3.1 9.9 1.3 6.8 1.5 59.3.3 61.3-.7 1-10.5 1.2-45.8 1l-44.9-.3-.3-31.9c-.3-35.5 0-37.2 6.2-45.6 3.9-5.4 9.9-9.7 16.9-12.2 4.5-1.5 7.9-1.8 23.7-1.6 17.9.3 18.7.4 24.1 3.1zM151.3 564.9c-15.1 4.3-27.5 14.3-34.5 27.7-6.9 13.1-7.1 14.6-7.6 56.8-.4 42.5-.1 44.8 6.2 48.7 3 1.8 5.8 1.9 62.9 1.9H238l3.8-3.4 3.7-3.4.3-40.6c.2-34.8 0-41.5-1.4-46.8-5.2-20.4-21.4-36.5-41.5-41.3-9.6-2.2-43.2-2-51.6.4zm51.9 23c7.5 3.7 13.4 9.5 17 16.9l3.3 6.7.3 30.4c.2 16.8.1 31.6-.3 32.8l-.5 2.3h-91l-.6-2.7c-.4-1.5-.4-16-.1-32.3.5-22.8 1-30.6 2.2-34 3.2-8.9 12.3-17.8 21.8-21.2 4.5-1.6 7.9-1.8 24.2-1.5 17.6.2 19.3.4 23.7 2.6zM474 564.6c-18.4 4.8-33.4 18.5-40.1 36.7-2.3 6-2.3 7.3-2.7 47.1-.3 44.2-.3 44.7 5 49.1l3 2.5H559.9l3.4-3.4c1.9-1.8 3.7-4.8 4.1-6.6.3-1.8.6-18.8.6-37.9-.1-25.4-.4-36.7-1.5-42.6-3.8-21.6-20.5-39.5-42-45-8.1-2-42.6-2-50.5.1zm50.3 23.1c6.6 3.1 15 11.3 17.8 17.6 2.4 5.1 2.4 5.7 2.4 38.2v33l-45.2.3-45.3.2-.6-2.4c-.3-1.3-.4-16.1-.2-32.8l.3-30.3 2.7-5.7c4.7-10 13.3-17.4 23.2-19.9 1.7-.4 11.4-.7 21.6-.6 16.7.2 19 .4 23.3 2.4z"/></svg>