<?xml version="1.0" encoding="utf-8"?>
<!-- Generator: Adobe Illustrator 24.0.1, SVG Export Plug-In . SVG Version: 6.00 Build 0)  -->
<svg version="1.1" id="Calque_1" xmlns="http://www.w3.org/2000/svg" xmlns:xlink="http://www.w3.org/1999/xlink" x="0px" y="0px"
	 viewBox="0 0 1608 240.9" style="enable-background:new 0 0 1608 240.9;" xml:space="preserve">
<style type="text/css">
	.st0{fill:#F5EEE0;}
</style>
<g>
	<path class="st0" d="M296.6,190.7c-1.4-1.5-2-3.3-2-5.6c0-2.2,0.7-4,2-5.4c1.3-1.4,3-2.1,5.1-2.1h48.7c2.1,0,4.3-0.4,6.5-1.2
		c2.1-0.8,4-2,5.6-3.5c3.8-3.5,5.6-7.8,5.6-12.7c0-4.9-1.8-8.9-5.4-12c-1.6-1.4-3.5-2.4-5.7-3.2s-4.4-1.1-6.7-1.2h-22.7
		c-4.3,0-8.4-0.8-12.2-2.5c-3.8-1.7-7.1-4-10-6.9s-5-6.3-6.6-10.1s-2.3-7.8-2.3-12c0-4.1,0.8-8.1,2.4-11.8s3.8-7,6.7-9.8
		s6.1-5,9.9-6.6c3.8-1.6,7.8-2.4,12-2.4h42.1c2.2,0,4.1,0.7,5.5,2c1.5,1.3,2.2,3.2,2.2,5.5c0,2.4-0.7,4.3-2.2,5.8
		c-1.5,1.5-3.3,2.2-5.5,2.2h-42.2c-4.2,0-7.9,1.6-11.1,4.7c-1.4,1.5-2.5,3.1-3.3,5c-0.8,1.9-1.2,3.8-1.2,5.8c0,2.1,0.4,4.1,1.2,6
		c0.8,1.9,1.9,3.6,3.4,5c1.4,1.5,3,2.6,5,3.5c1.9,0.9,3.9,1.3,6,1.3h24.1c4.5,0,8.6,0.8,12.6,2.5c3.9,1.6,7.3,4,10.3,7
		c2.9,3,5.2,6.5,6.7,10.4c1.6,3.9,2.4,8,2.4,12.3s-0.8,8.4-2.4,12.3c-1.6,3.9-3.8,7.4-6.6,10.4c-2.9,3.1-6.3,5.5-10.2,7.1
		c-3.9,1.7-8,2.5-12.5,2.5h-50.1C299.6,192.9,297.9,192.2,296.6,190.7z"/>
	<path class="st0" d="M429,189.9c-6.8-2.8-12.8-6.8-17.9-11.9c-5.2-5.1-9.3-11.1-12.2-17.8s-4.3-13.9-4.3-21.5
		c0-7.8,1.4-15.1,4.3-22s6.8-13,11.9-18.2c5.1-5.2,11.1-9.3,18-12.3c6.8-3,14.2-4.4,22-4.4c7.3,0,14.3,1.3,21,3.9
		c6.7,2.6,12.3,6.2,16.9,11c1.8,1.9,2.8,4.1,2.8,6.5c0,2.2-0.9,4.1-2.8,5.5c-1.5,1.3-3.2,2-5,2c-1.5,0-3.5-0.9-6.1-2.6l-3.2-2.4
		c-1.4-1.1-2.4-1.8-3.1-2.2c-3.3-2.1-6.7-3.7-10.1-4.6c-3.4-0.9-7.1-1.4-11-1.4c-5.5,0-10.8,1.1-15.7,3.3c-4.9,2.2-9.2,5.2-12.9,9
		c-3.5,3.8-6.3,8.1-8.3,13c-2,4.9-3,9.9-3,15.1c0,5.3,1,10.4,2.9,15.4s4.7,9.3,8.2,13.1c3.6,3.8,7.9,6.9,12.8,9s10.2,3.3,15.9,3.3
		c5.5,0,10.5-1,15.1-2.9c4.1-1.7,9-4.8,14.8-9.2c1.5-0.7,2.8-1,3.8-1c0.8,0,1.6,0.2,2.5,0.5s1.7,0.8,2.4,1.4
		c1.8,1.6,2.7,3.5,2.7,5.5c0,2.4-0.9,4.5-2.8,6.3c-4.6,4.8-10.3,8.4-16.9,11c-6.7,2.6-13.7,3.9-21,3.9
		C443,194.2,435.8,192.7,429,189.9z"/>
	<path class="st0" d="M600.8,190.9c-1.5-1.4-2.2-3.2-2.2-5.5v-49.7c0-5.3-0.8-10.3-2.5-15c-1.7-4.7-4-8.9-7-12.4
		c-3.2-3.5-6.9-6.3-11.2-8.3c-4.3-2-9.1-3-14.2-3c-5.2,0-10.2,1-15,2.9c-4.8,1.9-9,4.6-12.7,8.2c-3.7,3.5-6.6,7.7-8.7,12.4
		c-2.1,4.7-3.2,9.7-3.2,14.9v49.8c0,2.1-0.8,4-2.3,5.5c-1.5,1.5-3.3,2.3-5.5,2.3s-4-0.8-5.5-2.3c-1.5-1.5-2.3-3.3-2.3-5.5v-136
		c0-2.2,0.8-4.1,2.3-5.6c1.5-1.5,3.3-2.3,5.4-2.3c2.2,0,4.1,0.8,5.5,2.3c1.5,1.5,2.2,3.4,2.2,5.6v54.2c4.8-6.6,10.5-11.8,17.2-15.7
		c7.1-3.9,14.6-5.9,22.5-5.9c7.2,0,13.9,1.4,20.1,4.1c6.2,2.7,11.5,6.6,16.1,11.6c4.4,4.9,7.9,10.7,10.4,17.3
		c2.5,6.6,3.7,13.6,3.7,21v49.7c0,2.2-0.7,4-2.2,5.5c-1.5,1.4-3.3,2.1-5.5,2.1C604,193,602.2,192.3,600.8,190.9z"/>
	<path class="st0" d="M665.7,189.9c-6.8-2.9-12.8-6.9-18-12.2c-5.2-5.1-9.3-11.1-12.2-18c-2.9-6.8-4.4-14.1-4.4-21.7
		c0-7.7,1.5-15,4.4-21.9c2.9-6.9,7-12.9,12.2-18.1c5.2-5.2,11.2-9.3,18-12.2s14-4.3,21.6-4.3c7.7,0,15,1.5,21.8,4.4
		c6.9,2.9,12.9,7,18,12.1c5.2,5.2,9.2,11.3,12,18.1c2.9,6.9,4.3,14.2,4.3,21.8c0,7.6-1.4,14.8-4.3,21.7c-2.9,6.8-6.9,12.8-12,18
		c-5.2,5.1-11.2,9.2-18,12.1c-6.9,2.9-14.2,4.4-21.8,4.4C679.7,194.3,672.5,192.8,665.7,189.9z M703.3,175.8c5-2.1,9.4-5.1,13.1-8.9
		c3.7-3.8,6.6-8.1,8.6-13.1c2.1-5,3.1-10.2,3.1-15.6c0-5.5-1-10.8-3.1-15.8c-2.1-5-5-9.4-8.6-13.1c-3.8-3.8-8.2-6.7-13.2-8.8
		c-5-2.1-10.3-3.2-16-3.2s-10.9,1.1-15.8,3.2c-5,2.1-9.3,5-13.1,8.8c-3.8,3.8-6.7,8.1-8.8,13.1c-2.1,5-3.2,10.3-3.2,15.8
		c0,5.5,1,10.7,3.2,15.6c2.1,5,5.1,9.3,8.8,13.1c3.8,3.8,8.1,6.8,13.1,8.9c5,2.1,10.2,3.2,15.8,3.2
		C693,178.9,698.3,177.9,703.3,175.8z"/>
	<path class="st0" d="M788.4,189.9c-6.8-2.9-12.8-6.9-18-12.2c-5.2-5.1-9.3-11.1-12.2-18c-2.9-6.8-4.4-14.1-4.4-21.7
		c0-7.7,1.5-15,4.4-21.9c2.9-6.9,7-12.9,12.2-18.1c5.2-5.2,11.2-9.3,18-12.2s14-4.3,21.6-4.3c7.7,0,15,1.5,21.8,4.4
		c6.9,2.9,12.9,7,18,12.1c5.2,5.2,9.2,11.3,12,18.1c2.9,6.9,4.3,14.2,4.3,21.8c0,7.6-1.4,14.8-4.3,21.7c-2.9,6.8-6.9,12.8-12,18
		c-5.2,5.1-11.2,9.2-18,12.1c-6.9,2.9-14.2,4.4-21.8,4.4C802.4,194.3,795.2,192.8,788.4,189.9z M826,175.8c5-2.1,9.4-5.1,13.1-8.9
		c3.7-3.8,6.6-8.1,8.6-13.1c2.1-5,3.1-10.2,3.1-15.6c0-5.5-1-10.8-3.1-15.8c-2.1-5-5-9.4-8.6-13.1c-3.8-3.8-8.2-6.7-13.2-8.8
		c-5-2.1-10.3-3.2-16-3.2s-10.9,1.1-15.8,3.2c-5,2.1-9.3,5-13.1,8.8c-3.8,3.8-6.7,8.1-8.8,13.1c-2.1,5-3.2,10.3-3.2,15.8
		c0,5.5,1,10.7,3.2,15.6c2.1,5,5.1,9.3,8.8,13.1c3.8,3.8,8.1,6.8,13.1,8.9c5,2.1,10.2,3.2,15.8,3.2C815.7,178.9,821,177.9,826,175.8
		z"/>
	<path class="st0" d="M928.1,190.9c-1.4,1.4-3.2,2.1-5.4,2.1h-0.1h-0.1c-5.4,0-10.3-0.9-14.9-2.8c-4.5-1.8-8.5-4.5-12-8
		s-6.1-7.6-7.9-12.4c-1.8-4.8-2.8-10.1-2.8-16V49.7c0-2.2,0.7-4.1,2.1-5.6c1.4-1.5,3.2-2.3,5.4-2.3s4,0.8,5.5,2.3
		c1.5,1.5,2.3,3.4,2.3,5.6v104.1c0,7.5,1.9,13.4,5.8,17.6c3.8,4.2,9.2,6.4,16,6.6h0.6c2.2,0,4,0.7,5.5,2.2c1.4,1.5,2.1,3.3,2.1,5.4
		C930.2,187.8,929.5,189.5,928.1,190.9z"/>
	<path class="st0" d="M977.5,189.9c-6.9-2.9-12.9-7-18-12.1c-5.2-5.1-9.3-11.1-12.2-18c-2.9-6.8-4.4-14.1-4.4-21.7v-89
		c0-2.2,0.8-4.1,2.3-5.6s3.3-2.3,5.5-2.3c2.2,0,4.1,0.8,5.5,2.3c1.4,1.5,2.1,3.4,2.1,5.7v59.6c1.5-3.8,3.5-7.4,6.2-10.7
		c2.7-3.3,5.9-6.2,9.7-8.6c3.7-2.5,7.7-4.3,11.9-5.6c4.3-1.3,8.7-2,13.2-2c7.7,0,14.9,1.4,21.8,4.3c6.8,2.9,12.8,6.9,18,12
		c5.2,5.1,9.2,11.2,12,18c2.9,6.9,4.3,14.2,4.3,21.8s-1.4,14.9-4.3,21.8s-6.9,12.8-12,18c-5.2,5.1-11.2,9.2-18,12.1
		c-6.9,2.9-14.1,4.4-21.7,4.4S984.4,192.8,977.5,189.9z M1015.2,175.7c5-2.1,9.3-5.1,13.1-8.9c3.8-3.8,6.7-8.1,8.8-13.1
		s3.1-10.2,3.1-15.6c0-5.6-1-10.9-3.1-15.8s-5-9.3-8.8-13.1c-3.8-3.8-8.1-6.7-13.1-8.8s-10.3-3.1-16-3.1c-5.6,0-10.9,1-15.9,3.1
		c-5,2.1-9.4,5-13.1,8.8c-3.8,3.8-6.7,8.1-8.8,13.1c-2.1,5-3.2,10.2-3.2,15.8c0,5.5,1.1,10.7,3.2,15.6c2.1,5,5.1,9.3,8.8,13.1
		c3.8,3.8,8.1,6.8,13.1,8.9c5,2.1,10.3,3.2,15.9,3.2C1004.9,178.8,1010.2,177.8,1015.2,175.7z"/>
	<path class="st0" d="M1100.1,189.9c-6.8-2.9-12.8-6.9-18-12.2c-5.2-5.1-9.3-11.1-12.2-18c-2.9-6.8-4.4-14.1-4.4-21.7
		c0-7.7,1.5-15,4.4-21.9c2.9-6.9,7-12.9,12.2-18.1c5.2-5.2,11.2-9.3,18-12.2s14-4.3,21.6-4.3c7.7,0,15,1.5,21.8,4.4
		c6.9,2.9,12.9,7,18,12.1c5.2,5.2,9.2,11.3,12,18.1c2.9,6.9,4.3,14.2,4.3,21.8c0,7.6-1.4,14.8-4.3,21.7c-2.9,6.8-6.9,12.8-12,18
		c-5.2,5.1-11.2,9.2-18,12.1c-6.9,2.9-14.2,4.4-21.8,4.4C1114.1,194.3,1106.9,192.8,1100.1,189.9z M1137.7,175.8
		c5-2.1,9.4-5.1,13.1-8.9c3.7-3.8,6.6-8.1,8.6-13.1s3.1-10.2,3.1-15.6c0-5.5-1-10.8-3.1-15.8c-2.1-5-5-9.4-8.6-13.1
		c-3.8-3.8-8.2-6.7-13.2-8.8c-5-2.1-10.3-3.2-16-3.2s-10.9,1.1-15.8,3.2c-5,2.1-9.3,5-13.1,8.8c-3.8,3.8-6.7,8.1-8.8,13.1
		c-2.1,5-3.2,10.3-3.2,15.8c0,5.5,1.1,10.7,3.2,15.6c2.1,5,5.1,9.3,8.8,13.1c3.8,3.8,8.1,6.8,13.1,8.9s10.2,3.2,15.8,3.2
		C1127.4,178.9,1132.7,177.9,1137.7,175.8z"/>
	<path class="st0" d="M1222.9,189.9c-6.8-2.9-12.7-6.9-17.9-12.2c-5.2-5.1-9.1-11.1-12-18s-4.3-14.1-4.3-21.7c0-7.7,1.4-15,4.3-21.8
		c2.8-6.9,6.8-12.9,12-18.1c5.2-5.2,11.1-9.3,17.9-12.2s13.9-4.3,21.6-4.3c7.7,0,14.9,1.4,21.7,4.3s12.7,6.9,17.9,12.2
		c5.1,5.1,9,11.2,11.9,18.1s4.3,14.2,4.3,21.9v47.4c0,2.2-0.8,4.1-2.3,5.7c-1.5,1.5-3.4,2.3-5.7,2.3s-4-0.8-5.4-2.3
		s-2.1-3.4-2.1-5.7l-0.1-8.3c-5.2,5.5-11.2,9.7-18,12.6c-6.8,3-14.2,4.4-22.1,4.4C1236.8,194.3,1229.7,192.8,1222.9,189.9z
		 M1260.4,175.8c5-2.1,9.2-5.1,12.8-8.9c3.6-3.8,6.4-8.1,8.4-13.1s3-10.2,3-15.6c0-5.5-1-10.8-3-15.8s-4.8-9.4-8.4-13.1
		c-3.7-3.8-8-6.7-12.9-8.8c-4.9-2.1-10.2-3.2-15.9-3.2c-5.6,0-10.8,1.1-15.7,3.2c-4.9,2.1-9.2,5-12.8,8.8c-3.7,3.8-6.6,8.1-8.6,13.1
		c-2,5-3.1,10.3-3.1,15.8c0,5.5,1,10.7,3.1,15.6c2,5,4.9,9.3,8.6,13.1c3.7,3.8,8,6.8,12.8,8.9s10.1,3.2,15.7,3.2
		C1250.1,178.9,1255.4,177.9,1260.4,175.8z"/>
	<path class="st0" d="M1323.5,190.7c-1.6-1.5-2.4-3.3-2.4-5.5v-44.7c0-7.9,1.5-15.4,4.6-22.6c3-7.1,7.2-13.4,12.6-18.9
		c5.4-5.5,11.7-9.7,18.8-12.7c7.1-3,14.5-4.5,22.4-4.5h0.9c2.5,0,4.4,0.7,5.8,2.1c1.4,1.4,2.1,3.3,2.1,5.6c0,2.2-0.8,4-2.3,5.5
		s-3.4,2.1-5.7,2.1h-0.9c-5.7,0-11.1,1.1-16.4,3.3c-5.2,2.2-9.8,5.3-13.8,9.3c-4,4-7.1,8.7-9.4,14c-2.3,5.3-3.4,10.9-3.4,16.8v44.7
		c0,2.2-0.7,4.1-2.1,5.5c-1.4,1.5-3.2,2.2-5.2,2.2C1327,192.9,1325.1,192.2,1323.5,190.7z"/>
	<path class="st0" d="M1424.5,189.9c-6.8-2.9-12.8-6.9-18-12.2c-5.2-5.1-9.3-11.1-12.2-18c-2.9-6.8-4.4-14.1-4.4-21.7
		c0-7.7,1.5-15,4.4-21.9c2.9-6.9,7-12.9,12.2-18.1c5.2-5.2,11.2-9.3,18-12.2s14-4.3,21.6-4.3c10,0,18.3,2.3,25,6.7
		s12,10.9,15.9,19.3V49.3c0-2.3,0.7-4.2,2.1-5.7c1.4-1.5,3.2-2.3,5.5-2.3c2.2,0,4,0.8,5.5,2.3c1.5,1.5,2.3,3.4,2.3,5.6v89.5
		c-0.1,7.5-1.6,14.6-4.5,21.4c-2.9,6.8-6.9,12.7-12.1,17.8c-5.2,5.1-11.1,9.1-18,12c-6.8,2.8-14.1,4.3-21.7,4.3
		S1431.3,192.8,1424.5,189.9z M1462.1,175.8c5-2.1,9.4-5.1,13.1-8.9c3.7-3.8,6.6-8.1,8.6-13.1s3.1-10.2,3.1-15.6
		c0-5.5-1-10.8-3.1-15.8c-2.1-5-5-9.4-8.6-13.1c-3.8-3.8-8.2-6.7-13.2-8.8c-5-2.1-10.3-3.2-16-3.2s-10.9,1.1-15.8,3.2
		c-5,2.1-9.3,5-13.1,8.8c-3.8,3.8-6.7,8.1-8.8,13.1c-2.1,5-3.2,10.3-3.2,15.8c0,5.5,1.1,10.7,3.2,15.6c2.1,5,5.1,9.3,8.8,13.1
		c3.8,3.8,8.1,6.8,13.1,8.9s10.2,3.2,15.8,3.2C1451.8,178.9,1457.1,177.9,1462.1,175.8z"/>
	<path class="st0" d="M1521.1,190.7c-1.3-1.5-2-3.3-2-5.6c0-2.2,0.7-4,2-5.4c1.3-1.4,3.1-2.1,5.1-2.1h48.7c2.2,0,4.3-0.4,6.4-1.2
		c2.2-0.8,4-2,5.7-3.5c3.8-3.5,5.7-7.8,5.7-12.7c0-4.9-1.8-8.9-5.4-12c-1.6-1.4-3.5-2.4-5.7-3.2s-4.4-1.1-6.7-1.2h-22.7
		c-4.3,0-8.3-0.8-12.2-2.5c-3.8-1.7-7.1-4-10-6.9s-5-6.3-6.6-10.1c-1.5-3.8-2.3-7.8-2.3-12c0-4.1,0.8-8.1,2.4-11.8s3.8-7,6.7-9.8
		c2.8-2.8,6.2-5,9.9-6.6c3.8-1.6,7.8-2.4,12-2.4h42.1c2.2,0,4.1,0.7,5.5,2c1.5,1.3,2.2,3.2,2.2,5.5c0,2.4-0.7,4.3-2.2,5.8
		c-1.5,1.5-3.3,2.2-5.5,2.2H1552c-4.2,0-7.9,1.6-11.1,4.7c-1.4,1.5-2.5,3.1-3.3,5c-0.8,1.9-1.2,3.8-1.2,5.8c0,2.1,0.4,4.1,1.2,6
		c0.8,1.9,1.9,3.6,3.4,5c1.4,1.5,3,2.6,5,3.5c1.9,0.9,3.9,1.3,6,1.3h24.1c4.4,0,8.6,0.8,12.6,2.5c3.9,1.6,7.3,4,10.3,7
		c2.9,3,5.2,6.5,6.7,10.4c1.6,3.9,2.4,8,2.4,12.3s-0.8,8.4-2.4,12.3c-1.6,3.9-3.8,7.4-6.6,10.4c-2.9,3.1-6.3,5.5-10.2,7.1
		c-3.9,1.7-8.1,2.5-12.5,2.5h-50.1C1524.1,192.9,1522.4,192.2,1521.1,190.7z"/>
</g>
<g>
	<path class="st0" d="M220.8,3.4v113.8c-1.2,2.5-3.2,3.1-5.9,3.1c-44.5-0.1-89.1,0-133.6,0c-3.4,0-4.8-1.4-4.8-4.8
		c0-5.8,0-11.7,0-17.5c0-1.2,0.3-1.6,1.5-1.5c1.6,0.1,3.2,0.1,4.8,0c1.2-0.1,1.7,0.3,1.6,1.6c-0.1,4.3,0,8.6-0.1,12.9
		c0,1.1,0.3,1.5,1.5,1.5c41.9,0,83.9,0,125.8,0c1.2,0,1.5-0.4,1.5-1.6c0-33.8,0-67.6,0-101.4c0-1.4-0.5-1.7-1.8-1.7
		c-41.8,0-83.6,0-125.3,0c-1.4,0-1.7,0.4-1.7,1.7c0,14.8,0,29.5,0,44.3c0,2.5,0.4,2.2-2.3,2.2c-1.3,0-2.6-0.1-3.9,0
		c-1.4,0.1-1.6-0.5-1.6-1.7c0-16.1,0.1-32.3,0-48.4c0-2.9,0.6-5,3.4-6h137.6C219,0.7,220.1,1.8,220.8,3.4z"/>
	<path class="st0" d="M107,64.2c-9.4,0.1-18.9,0-28.3,0.2c-16.6,0.2-33.3,0-49.9,0.1c-4.1,0-8.1-0.3-12.2,0.4
		c-7,1.3-11.8,5.3-14.8,11.7c-0.9,1.9-0.9,4.1-1.8,6v58.8c1.2,2.5,3.2,3.1,5.9,3.1c17.7-0.1,35.4,0,53.2,0c3.6,0,5.2-1.6,5.2-5.3
		c0-16.4,0-32.7,0-49.1c0-1.4,0.4-1.8,1.8-1.8c13.7,0.1,27.4,0,41.1,0c3.7,0,5.4-1.6,5.4-5.4V69.6C112.4,66,110.7,64.2,107,64.2z
		 M104.4,74.1c-0.1,1.6-0.1,3.2,0,4.8c0.1,1.3-0.3,1.6-1.6,1.6c-7.8,0-15.5,0-23.3,0c-6.2,0-12.3,0-18.5,0c-3.4,0-4.6,1.2-4.6,4.6
		c0,16.4,0,32.8,0,49.3c0,2.3,0,2.3-2.2,2.3c-14.8,0-29.7,0-44.5,0c-1.5,0-1.9-0.4-1.9-1.9c0.1-16.6,0.1-33.3,0-49.9
		c0-6.8,5.3-12.6,12.3-12.5c13.5,0.1,27.1,0,40.6,0c13.9,0,27.9,0,41.8,0C103.9,72.3,104.6,72.6,104.4,74.1z"/>
	<path class="st0" d="M76.1,213.8c0.1-5-1.4-9.5-4.5-13.4c-3.1-3.9-7.2-6.3-12.2-7.1c-3.8-0.6-7.6-0.2-11.3-0.3
		c-1.9-0.1-3.7,0.4-5.6,0.9c-8.8,2.4-14.3,10.7-14.3,19.6c0,7.2,0.1,14.5-0.1,21.7c-0.1,2.7,0.7,4.6,3.1,5.7H73
		c2.4-1.1,3.1-3,3.1-5.5C76,228.1,76,221,76.1,213.8z M66.6,233.1c-4.8-0.1-9.5,0-14.3,0c-4.9,0-9.8,0-14.8,0
		c-1.2,0-1.6-0.3-1.6-1.5c0.1-6.5,0-13,0.1-19.5c0.1-5.7,5.7-11.3,11.4-11.3c3.2,0,6.4,0,9.7,0c5.5,0,11.1,5.6,11.2,11.1
		c0,6.5,0,13,0,19.5C68.3,232.9,67.8,233.1,66.6,233.1z"/>
	<path class="st0" d="M188.6,214c0.1-5.1-1.3-9.7-4.5-13.6c-3.1-3.9-7.2-6.3-12.2-7.1c-3.8-0.6-7.5-0.2-11.3-0.3
		c-1.9-0.1-3.7,0.4-5.6,0.9c-8.7,2.4-14.4,10.7-14.3,19.7c0,7.2,0.1,14.5,0,21.7c-0.1,2.6,0.7,4.5,3.1,5.6h41.8
		c2.5-1.1,3.1-3.1,3.1-5.7C188.5,228.1,188.5,221,188.6,214z M178.9,233.1c-4.8-0.1-9.6,0-14.4,0v0c-4.8,0-9.6,0-14.4,0
		c-1.2,0-1.7-0.3-1.7-1.6c0.1-6.5-0.1-12.9,0.1-19.3c0.2-6.1,5.3-11.3,11.4-11.4c3.1,0,6.2,0,9.3,0c5.9,0,11.4,5.5,11.4,11.4
		c0,6.4,0,12.8,0,19.2C180.8,232.8,180.3,233.1,178.9,233.1z"/>
	<path class="st0" d="M128.4,201c-3.3-4.2-7.5-6.9-12.9-7.7c-4.2-0.6-8.5-0.3-12.7-0.3c-3,0-6,1.1-8.5,2.7c-6.5,4.1-9.8,10-9.8,17.7
		c0,7.2,0.1,14.5,0,21.7c0,2.5,0.4,4.6,2.8,5.8h42.1c1.3-0.8,2.6-1.6,2.7-3.3c0-8.7,0-17.3,0-26C131.9,207.7,130.8,204.1,128.4,201z
		 M122.8,233.1c-4.8-0.1-9.6,0-14.4,0c-4.9,0-9.7,0-14.6,0c-1.1,0-1.4-0.3-1.4-1.4c0.1-6.6,0-13.1,0-19.7
		c0.1-5.8,5.5-11.1,11.2-11.2c2.8,0,5.7,0.1,8.5,0c6.3-0.4,12.5,5.1,12.5,12.5c0,6,0,12,0,18C124.7,232.7,124.2,233.1,122.8,233.1z"
		/>
	<path class="st0" d="M196.7,46.5c0.1,1.2-0.4,1.5-1.5,1.5c-10.7,0-21.5,0-32.2,0h-14.3c-15.5,0-31,0-46.5,0c-1.3,0-1.8-0.3-1.7-1.7
		c0.1-1.6,0.1-3.2,0-4.8c0-1,0.3-1.3,1.3-1.3c4.4,0,8.8,0,13.2,0c12.8,0,25.7,0,38.5,0c13.9,0,27.7,0,41.6,0c1.2,0,1.7,0.3,1.6,1.6
		C196.6,43.4,196.6,45,196.7,46.5z"/>
	<path class="st0" d="M47.8,34.6c0-2.7-1.1-5.3-2.7-7.5c-4.6-6.4-13-8.8-20.2-5c-4.6,2.4-7.4,6-8.3,11.1c-0.4,2.3-0.1,4.6-0.3,6.5
		c0,2,0,3.6,0,5.2c0.1,2.4,0.7,4.8,1.9,6.9c4.1,7.3,13.4,10.9,21.8,6.2c4.2-2.4,6.9-6,7.7-10.9C48.3,42.9,47.9,38.7,47.8,34.6z
		 M40.1,40.3v4.4c0,4-3.6,7.5-7.6,7.6c-4.6,0.1-8.3-3.2-8.4-7.4c-0.1-3.2-0.1-6.5,0-9.7c0.1-3.9,3.9-7.4,7.9-7.3
		c4.4,0,8.1,3.5,8.1,7.6C40.1,37.1,40.1,38.7,40.1,40.3z"/>
	<path class="st0" d="M196.7,29.9c0.2,1.6-0.3,2.1-2,2.1c-10.2-0.1-20.5,0-30.7,0h-7.5c-12.8,0-25.6,0-38.4,0
		c-1.3,0-1.8-0.3-1.7-1.6c0.1-1.4,0.1-2.8,0-4.2c-0.1-1.5,0.3-2,1.9-2c4.8,0.1,9.6,0,14.4,0c20.6,0,41.3,0,61.9,0
		c1.5,0,2.1,0.3,2,1.9C196.6,27.3,196.6,28.6,196.7,29.9z"/>
	<path class="st0" d="M196.7,62.6c0.1,1.3-0.3,1.6-1.6,1.6c-6.4-0.1-12.8,0-19.2,0h-17.3c-12.1,0-24.2,0-36.3,0
		c-1.4,0-1.9-0.3-1.8-1.8c0.1-1.6,0.1-3.3,0-4.9c0-0.9,0.2-1.2,1.1-1.2c1,0.1,2,0,3.1,0c23.4,0,46.7,0,70.1,0c1.5,0,2,0.3,1.9,1.9
		C196.6,59.7,196.6,61.2,196.7,62.6z"/>
	<path class="st0" d="M196.7,74.1c-0.1,1.7-0.1,3.4,0,5.1c0,0.7-0.2,1-1,1c-0.3,0-0.6,0-0.9,0c-24.1,0-48.3,0-72.5,0
		c-1.5,0-2-0.4-1.8-1.9c0.1-1.5,0.1-3,0-4.4c-0.1-1.3,0.3-1.6,1.6-1.6c7,0.1,14,0,21,0h15.6c12.1,0,24.1,0,36.1,0
		C196.4,72.3,196.8,72.7,196.7,74.1z"/>
	<path class="st0" d="M108.3,156.8c-9.3,0.1-15.6,6.6-15.8,15.8c-0.2,9,6.8,15.8,15.9,16c9.1-0.1,15.9-7,15.9-15.8
		C124.2,163.3,117.3,156.7,108.3,156.8z M108.3,180.7c-3.9,0.4-8.1-3.6-8.1-7.9c0-4.5,3.8-8.4,8.3-8.3c4.4,0.1,8.2,3.8,8.1,8.3
		C116.4,177.3,113,180.7,108.3,180.7z"/>
	<path class="st0" d="M52.1,156.8c-9,0.1-15.8,6.8-15.8,16.3c0,8.2,7.1,15.6,16.1,15.5c8.4-0.1,15.5-7.3,15.5-15.8
		C67.9,163.1,60.7,156.7,52.1,156.8z M52.1,180.7c-3.9,0.5-8.2-3.9-8.1-8.3c0.1-3.6,3.5-8,8.2-8c4.3,0.1,7.9,3.5,8,8.1
		C60.4,177.4,55.8,181.3,52.1,180.7z"/>
	<path class="st0" d="M164.6,156.8c-8.8,0-15.7,6.5-15.9,15.9c-0.1,8.7,7.2,15.9,15.7,15.9c8.9,0,16-7.1,15.9-15.9
		C180.3,163.4,173.6,156.8,164.6,156.8z M164.4,180.8c-4,0-8.4-4.1-7.8-8.2c-0.5-3.9,3.3-8.1,8-8.2c4.4,0,8.1,3.7,8.1,8.2
		C172.8,177.5,168.5,180.9,164.4,180.8z"/>
	<path class="st0" d="M196.7,94.8c0,1.1-0.3,1.4-1.4,1.4c-6,0-12.1,0-18.1,0c-18.2,0-36.4,0-54.6,0c-1.5,0-2.1-0.4-1.9-1.9
		c0.2-1.9,0.1-3.7,0.1-5.6h76C196.6,90.7,196.6,92.7,196.7,94.8z"/>
	<path class="st0" d="M108.4,28c0,3.9,0,3.9-4,3.9c-3.9,0-3.9,0-3.9-3.8c0-4,0-4,4-4C108.4,24.1,108.4,24.1,108.4,28z"/>
	<path class="st0" d="M196.6,88.7h-76c0.4-0.6,1-0.3,1.5-0.3c24.3,0,48.6,0,72.9,0C195.6,88.3,196.2,88,196.6,88.7z"/>
	<path class="st0" d="M132.2,237.5c0-8.7,0-17.3,0-26c0.4,0.5,0.3,1.1,0.3,1.6c0,7.6,0,15.3,0,22.9
		C132.5,236.6,132.6,237.1,132.2,237.5z"/>
</g>
</svg>
